<?xml version="1.0" encoding="utf-8"?>
<!-- Generator: Adobe Illustrator 16.0.0, SVG Export Plug-In . SVG Version: 6.00 Build 0)  -->
<!DOCTYPE svg PUBLIC "-//W3C//DTD SVG 1.1//EN" "http://www.w3.org/Graphics/SVG/1.1/DTD/svg11.dtd">
<svg version="1.1" id="Capa_1" xmlns="http://www.w3.org/2000/svg" xmlns:xlink="http://www.w3.org/1999/xlink" x="0px" y="0px"
	 width="30px" height="30px" viewBox="0 0 30 30" enable-background="new 0 0 30 30" xml:space="preserve">
<g>
	<path fill="none" stroke="#FFFFFF" stroke-miterlimit="10" d="M29.369,24.879c0,1.044-0.847,1.891-1.892,1.891H2.563
		c-1.044,0-1.891-0.847-1.891-1.891V5.719c0-1.045,0.847-1.891,1.891-1.891h24.915c1.045,0,1.892,0.846,1.892,1.891V24.879z"/>
	<circle fill="none" stroke="#FFFFFF" stroke-miterlimit="10" cx="10.732" cy="12.085" r="3.593"/>
	<path fill="none" stroke="#FFFFFF" stroke-miterlimit="10" d="M5.185,22.735c0,0,0.63-5.987,5.546-5.987s5.799,4.16,5.799,5.987
		H5.185z"/>
	<line fill="none" stroke="#FFFFFF" stroke-miterlimit="10" x1="18.105" y1="11.517" x2="25.038" y2="11.517"/>
	<line fill="none" stroke="#FFFFFF" stroke-miterlimit="10" x1="18.105" y1="15.171" x2="25.038" y2="15.171"/>
	<line fill="none" stroke="#FFFFFF" stroke-miterlimit="10" x1="18.105" y1="18.986" x2="25.038" y2="18.986"/>
</g>
</svg>
