<?xml version="1.0" encoding="utf-8"?>
<!-- Generator: Adobe Illustrator 19.2.1, SVG Export Plug-In . SVG Version: 6.00 Build 0)  -->
<svg version="1.1" id="Capa_1" xmlns="http://www.w3.org/2000/svg" xmlns:xlink="http://www.w3.org/1999/xlink" x="0px" y="0px"
	 viewBox="0 0 40 40" style="enable-background:new 0 0 40 40;" xml:space="preserve">
<style type="text/css">
	.st0{fill:#FFFFFF;stroke:#FFFFFF;stroke-miterlimit:10;}
</style>
<g>
	<path class="st0" d="M39.2,20C39.2,9.4,30.6,0.8,20,0.8S0.8,9.4,0.8,20S9.4,39.2,20,39.2S39.2,30.6,39.2,20z M37.8,20
		c0,9.8-8,17.8-17.8,17.8S2.2,29.8,2.2,20S10.2,2.2,20,2.2S37.8,10.2,37.8,20z"/>
	<path class="st0" d="M32.3,19.6c0-0.6-0.5-1-1-1H10.6l6.1-6.1c0.4-0.4,0.4-1,0-1.4c-0.2-0.2-0.5-0.3-0.7-0.3s-0.5,0.1-0.7,0.3
		l-7.8,7.8c-0.2,0.2-0.3,0.4-0.3,0.7v0v0v0c0,0.3,0.1,0.5,0.3,0.7l7.8,7.8c0.4,0.4,1,0.4,1.4,0c0.4-0.4,0.4-1,0-1.4l-6.1-6.1h20.7
		C31.9,20.6,32.3,20.1,32.3,19.6z"/>
</g>
</svg>
