<?xml version="1.0" encoding="utf-8"?>
<!-- Generator: Adobe Illustrator 19.2.1, SVG Export Plug-In . SVG Version: 6.00 Build 0)  -->
<svg version="1.1" id="Capa_1" xmlns="http://www.w3.org/2000/svg" xmlns:xlink="http://www.w3.org/1999/xlink" x="0px" y="0px"
	 viewBox="0 0 50 50" style="enable-background:new 0 0 50 50;" xml:space="preserve">
<style type="text/css">
	.st0{fill:#FFFFFF;}
</style>
<g>
	<path class="st0" d="M14.4,17.8c0-1.3,0.4-2.7,1.3-4.1c0.9-1.4,2.1-2.5,3.8-3.4C21.1,9.4,23,9,25.3,9c2,0,3.9,0.4,5.4,1.1
		s2.8,1.8,3.6,3.1c0.9,1.3,1.3,2.7,1.3,4.2c0,1.2-0.2,2.3-0.7,3.2c-0.5,0.9-1.1,1.7-1.7,2.3c-0.7,0.7-1.9,1.8-3.6,3.3
		c-0.5,0.4-0.9,0.8-1.2,1.2c-0.3,0.3-0.5,0.6-0.6,0.9c-0.1,0.3-0.3,0.6-0.3,0.8s-0.2,0.8-0.3,1.5c-0.3,1.5-1.1,2.2-2.5,2.2
		c-0.7,0-1.4-0.2-1.9-0.7c-0.5-0.5-0.8-1.2-0.8-2.1c0-1.2,0.2-2.2,0.6-3.1s0.9-1.6,1.5-2.3s1.4-1.4,2.5-2.3c0.9-0.8,1.6-1.4,2-1.8
		c0.4-0.4,0.7-0.9,1-1.3s0.4-1,0.4-1.6c0-1.1-0.4-2.1-1.3-2.9c-0.8-0.8-1.9-1.2-3.3-1.2c-1.6,0-2.7,0.4-3.4,1.2
		c-0.7,0.8-1.4,1.9-1.9,3.5c-0.5,1.6-1.4,2.4-2.7,2.4c-0.8,0-1.5-0.3-2-0.8C14.7,19.1,14.4,18.5,14.4,17.8z M24.7,41
		c-0.9,0-1.6-0.3-2.3-0.8s-1-1.3-1-2.3c0-0.9,0.3-1.6,0.9-2.2s1.4-0.9,2.3-0.9c0.9,0,1.6,0.3,2.2,0.9s0.9,1.4,0.9,2.2
		c0,1-0.3,1.8-1,2.3C26.3,40.8,25.6,41,24.7,41z"/>
	<path class="st0" d="M25,49.1C11.7,49.1,0.9,38.3,0.9,25S11.7,0.9,25,0.9S49.1,11.7,49.1,25S38.3,49.1,25,49.1z M25,3.2
		C13,3.2,3.2,13,3.2,25S13,46.8,25,46.8S46.8,37,46.8,25S37,3.2,25,3.2z"/>
</g>
</svg>
