<?xml version="1.0" encoding="utf-8"?>
<!-- Generator: Adobe Illustrator 19.2.1, SVG Export Plug-In . SVG Version: 6.00 Build 0)  -->
<svg version="1.1" id="Capa_1" xmlns="http://www.w3.org/2000/svg" xmlns:xlink="http://www.w3.org/1999/xlink" x="0px" y="0px"
	 viewBox="0 0 40 40" style="enable-background:new 0 0 40 40;" xml:space="preserve">
<style type="text/css">
	.st0{fill:#FFFFFF;stroke:#FFFFFF;stroke-miterlimit:10;}
	.st1{fill:#FFFFFF;}
</style>
<g>
	<path class="st0" d="M0.8,20c0,10.6,8.6,19.2,19.2,19.2S39.2,30.6,39.2,20S30.6,0.8,20,0.8S0.8,9.4,0.8,20z M2.2,20
		c0-9.8,8-17.8,17.8-17.8s17.8,8,17.8,17.8s-8,17.8-17.8,17.8S2.2,29.8,2.2,20z"/>
</g>
<g>
	<g>
		<g>
			<path class="st1" d="M10,28.6c-0.8-0.2-1.3-1-1.3-1.8V13.1c0-1,0.8-1.8,1.8-1.8h7.6l3.1,2.8h7.3c1,0,1.8,0.8,1.8,1.8v4H16.2
				c-0.3,0-0.8,0.3-1,0.5l-4.6,7l-0.1,0l-0.4,1.2L10,28.6z M10.5,12.8c-0.2,0-0.3,0.1-0.3,0.3v12.2l3.8-5.7c0.5-0.7,1.4-1.2,2.3-1.2
				h12.6v-2.5c0-0.2-0.1-0.3-0.3-0.3h-7.9l-3.1-2.8H10.5z"/>
			<path class="st1" d="M18,11.5l3.1,2.8h7.4c0.9,0,1.6,0.7,1.6,1.6v3.8H16.2c-0.4,0-1,0.3-1.2,0.6l-4.6,7c0,0.1-0.1,0.1-0.1,0.1
				c0,0,0-0.1,0-0.1l-0.3,1c-0.7-0.2-1.1-0.8-1.1-1.5V13.1c0-0.9,0.7-1.6,1.6-1.6H18 M10,26.2l4.2-6.4c0.4-0.6,1.3-1.1,2.1-1.1h12.8
				v-2.7c0-0.3-0.2-0.5-0.5-0.5h-7.8l-3.1-2.8h-7.1c-0.3,0-0.5,0.2-0.5,0.5V26.2 M18.2,11H18h-7.5c-1.2,0-2.1,0.9-2.1,2.1v13.8
				c0,0.9,0.6,1.7,1.5,2l0.5,0.1l0.1-0.5l0.3-1l-0.2-0.1l0.2,0c0,0.1,0,0.1,0,0.1l4.6-7c0.1-0.2,0.5-0.4,0.8-0.4h13.9h0.5v-0.5v-3.8
				c0-1.2-0.9-2.1-2.1-2.1h-7.2l-3-2.6L18.2,11L18.2,11z M10.5,24.5V13.1l7,0l3,2.6l0.1,0.1h0.2h7.8l0,2.2H16.2
				c-0.9,0-2,0.6-2.5,1.4L10.5,24.5L10.5,24.5z"/>
		</g>
	</g>
	<g>
		<g>
			<path class="st1" d="M10.5,28.7c-0.2,0-0.4,0-0.5-0.1c-0.4-0.1-0.7-0.4-0.8-0.8C9,27.5,9.1,27,9.4,26.6l4.6-7
				c0.5-0.7,1.4-1.2,2.3-1.2h17.7c0.6,0,1,0.2,1.3,0.7c0.2,0.4,0.2,0.9-0.1,1.4l-4.2,7c-0.4,0.7-1.4,1.3-2.3,1.3H10.5z M28.6,27.2
				c0.3,0,0.8-0.3,0.9-0.5l4.1-6.7l-17.4,0c-0.3,0-0.8,0.3-1,0.5l-4.4,6.7L28.6,27.2z"/>
			<path class="st1" d="M33.9,18.6c0.5,0,0.9,0.2,1.1,0.5c0.2,0.3,0.2,0.8-0.1,1.2l-4.2,7c-0.4,0.7-1.3,1.2-2.1,1.2H10.5
				c-0.2,0-0.3,0-0.5-0.1l0,0c-0.3-0.1-0.5-0.3-0.6-0.6c-0.1-0.3,0-0.7,0.2-1l4.6-7c0.4-0.6,1.3-1.1,2.1-1.1H33.9 M10.5,27.4h18.1
				c0.4,0,1-0.3,1.2-0.7l4.2-7c0,0,0-0.1,0-0.1c0,0-0.1,0-0.1,0H16.2c-0.4,0-1,0.3-1.2,0.6L10.5,27.4C10.4,27.4,10.4,27.4,10.5,27.4
				C10.4,27.4,10.5,27.4,10.5,27.4 M33.9,18.1H16.2c-0.9,0-2,0.6-2.5,1.4l-4.6,7c-0.3,0.5-0.4,1-0.2,1.5c0.2,0.4,0.5,0.8,1,0.9
				c0.2,0.1,0.4,0.1,0.6,0.1h18.1c1,0,2-0.6,2.5-1.4l4.2-7c0.3-0.6,0.4-1.2,0.1-1.7C35.1,18.4,34.6,18.1,33.9,18.1L33.9,18.1z
				 M11.3,26.9l4.1-6.3c0.1-0.2,0.5-0.4,0.8-0.4h16.9l-3.8,6.3c-0.1,0.2-0.5,0.4-0.7,0.4H11.3L11.3,26.9z"/>
		</g>
	</g>
</g>
</svg>
