<?xml version="1.0" encoding="utf-8"?>
<!-- Generator: Adobe Illustrator 23.1.0, SVG Export Plug-In . SVG Version: 6.00 Build 0)  -->
<svg version="1.1" id="Capa_1" focusable="false" xmlns="http://www.w3.org/2000/svg" xmlns:xlink="http://www.w3.org/1999/xlink"
	 x="0px" y="0px" viewBox="0 0 384 512" style="enable-background:new 0 0 384 512;" xml:space="preserve">
<style type="text/css">
	.st0{fill:#FF5722;}
</style>
<path class="st0" d="M369.9,97.9L286,14c-9-9-21.2-14.1-33.9-14.1H48C21.5,0,0,21.5,0,48v416c0,26.5,21.5,48,48,48h288
	c26.5,0,48-21.5,48-48V131.9C384,119.2,378.9,106.9,369.9,97.9z M332.1,128H256V51.9L332.1,128z M48,464V48h160v104
	c0,13.3,10.7,24,24,24h104v288H48z"/>
<g>
	<path class="st0" d="M121.8,225.8c13.4-2.3,32.2-4,58.7-4c26.8,0,45.9,5.1,58.7,15.4c12.3,9.7,20.5,25.7,20.5,44.5
		c0,18.8-6.3,34.8-17.7,45.6c-14.8,14-36.8,20.2-62.4,20.2c-5.7,0-10.8-0.3-14.8-0.9v68.7h-43V225.8z M164.8,313
		c3.7,0.9,8.3,1.1,14.5,1.1c23.1,0,37.3-11.7,37.3-31.3c0-17.7-12.3-28.2-33.9-28.2c-8.8,0-14.8,0.9-18,1.7V313z"/>
</g>
</svg>
