<?xml version="1.0" encoding="utf-8"?>
<!-- Generator: Adobe Illustrator 23.1.0, SVG Export Plug-In . SVG Version: 6.00 Build 0)  -->
<svg version="1.1" id="Capa_1" xmlns="http://www.w3.org/2000/svg" xmlns:xlink="http://www.w3.org/1999/xlink" x="0px" y="0px"
	 viewBox="0 0 50 50" style="enable-background:new 0 0 50 50;" xml:space="preserve">
<style type="text/css">
	.st0{fill:#666666;}
</style>
<g>
	<g>
		<path class="st0" d="M4.3,40.9c1.2,0.3,2.5,0.2,3.9-0.4c2.4-1,5.1-3.1,7.8-5.6c1.9-1.8,5.4-2.7,9-2.7s7.1,0.9,9,2.7
			c2.7,2.5,5.4,4.6,7.8,5.6c1.4,0.5,2.7,0.7,3.9,0.4c1.2-0.4,2.3-1.2,2.9-2.8c0.7-1.5,1-3.8,0.9-7c-0.1-2.8-0.6-5.9-1.3-8.9
			c-0.7-2.8-1.6-5.4-2.7-7.4C41.2,7.3,36.6,8.5,31,9.9c-1.8,0.4-3.7,0.9-5.6,1.1h-0.6c-2-0.2-3.8-0.7-5.6-1.1
			c-5.7-1.3-10.3-2.5-14.6,5c-1.1,2-2.1,4.6-2.7,7.4c-0.7,2.9-1.2,6-1.3,8.9c-0.1,3.1,0.2,5.4,0.9,7C2,39.7,3,40.6,4.3,40.9z
			 M2.8,31.3c0.1-2.6,0.5-5.6,1.3-8.4c0.7-2.6,1.5-5.1,2.6-6.9c3.4-6,7.3-5.1,11.9-3.8c1.9,0.5,3.8,1,6,1.2c0.1,0,0.1,0,0.1,0h0.7
			l0,0c0.1,0,0.1,0,0.1,0c2.2-0.2,4.2-0.7,6-1.2C36.1,11,40,9.9,43.4,16c1,1.8,1.9,4.2,2.6,6.9c0.7,2.8,1.2,5.7,1.3,8.4
			c0.1,2.8-0.1,4.7-0.7,6c-0.4,0.9-0.9,1.3-1.5,1.5c-0.7,0.2-1.5,0.1-2.5-0.3c-2.1-0.9-4.6-2.7-7.1-5.1c-2.3-2.3-6.4-3.5-10.5-3.5
			s-8.2,1.2-10.6,3.4c-2.5,2.3-5,4.3-7.1,5.1c-1,0.4-1.8,0.5-2.5,0.3c-0.6-0.2-1.1-0.7-1.5-1.5C2.9,36,2.7,34.1,2.8,31.3z"/>
		<path class="st0" d="M10.1,25.3c0.1,0.9,0.4,1.6,1,2.2c0.7,0.7,1.5,1,2.5,1l0,0c1,0,1.9-0.4,2.5-1l0,0c0.5-0.6,1-1.3,1-2.2
			c0.9-0.1,1.6-0.4,2.2-1c0.7-0.7,1-1.5,1-2.5l0,0c0-1-0.4-1.9-1-2.5l0,0c-0.6-0.5-1.3-1-2.2-1c-0.1-0.8-0.4-1.6-1-2.1V16
			c-0.7-0.7-1.5-1-2.5-1l0,0c-1,0-1.9,0.4-2.5,1c-0.5,0.5-1,1.3-1,2.2c-0.9,0.1-1.6,0.4-2.2,1l-0.1,0.1c-0.7,0.7-1,1.5-1,2.5l0,0
			c0,1,0.4,1.9,1,2.5C8.5,24.9,9.2,25.2,10.1,25.3z M9.1,21.8c0-0.4,0.1-0.7,0.4-0.9c0,0,0,0,0.1-0.1c0.2-0.2,0.5-0.3,0.9-0.3h0.9
			c0.6,0,1.2-0.5,1.2-1.2v-0.9c0-0.4,0.1-0.7,0.4-0.9c0.2-0.2,0.5-0.4,0.9-0.4l0,0c0.4,0,0.7,0.1,0.9,0.4c0,0,0,0,0.1,0.1
			c0.2,0.2,0.3,0.5,0.3,0.9v0.9c0,0.6,0.5,1.2,1.2,1.2h0.9c0.4,0,0.7,0.1,0.9,0.4l0,0l0,0c0.2,0.2,0.4,0.5,0.4,0.9l0,0
			c0,0.4-0.1,0.7-0.4,0.9c-0.2,0.2-0.5,0.4-0.9,0.4h-0.9c-0.6,0-1.2,0.5-1.2,1.2V25c0,0.4-0.1,0.7-0.4,0.9l0,0l0,0
			c-0.2,0.2-0.5,0.4-0.9,0.4l0,0c-0.4,0-0.7-0.1-0.9-0.4c-0.2-0.2-0.4-0.5-0.4-0.9v-0.9c0-0.6-0.5-1.2-1.2-1.2h-0.9
			c-0.4,0-0.7-0.1-0.9-0.4C9.3,22.4,9.1,22.1,9.1,21.8L9.1,21.8z"/>
		<circle class="st0" cx="35.6" cy="17.4" r="2.1"/>
		<circle class="st0" cx="35.6" cy="26.1" r="2.1"/>
		<circle class="st0" cx="31.3" cy="21.8" r="2.1"/>
		<circle class="st0" cx="40" cy="21.8" r="2.1"/>
	</g>
</g>
</svg>
