<?xml version="1.0" encoding="utf-8"?>
<!-- Generator: Adobe Illustrator 23.1.0, SVG Export Plug-In . SVG Version: 6.00 Build 0)  -->
<svg version="1.1" id="Capa_1" xmlns="http://www.w3.org/2000/svg" xmlns:xlink="http://www.w3.org/1999/xlink" x="0px" y="0px"
	 viewBox="0 0 20 20" style="enable-background:new 0 0 20 20;" xml:space="preserve">
<style type="text/css">
	.st0{fill:#FFFFFF;}
</style>
<g>
	<g>
		<path class="st0" d="M15.8,11.7c-0.2-0.9-0.1-1.5,0-1.9c0-0.1,0-0.2,0-0.3c0-0.4-0.2-0.7-0.6-0.9c-0.4-0.2-0.9-0.2-1.3,0v-5
			c0-0.9-0.7-1.6-1.5-1.6c-0.3,0-0.5,0.1-0.7,0.2V1.6C11.6,0.7,11,0,10.1,0C9.3,0,8.7,0.7,8.6,1.5C8.4,1.4,8.1,1.3,7.9,1.3
			C7,1.3,6.4,2,6.3,2.9v1.5C6.1,4.3,5.9,4.2,5.6,4.2c-0.8,0-1.4,0.7-1.4,1.5c0,1.1,0,1.6-0.1,1.9c0,0.5,0,0.6,0,2.4v3.3
			c0,0.7,0.2,1.4,0.4,2.1c0.1,0.5,0.3,1,0.3,1.5c-0.2,0-0.4,0.2-0.4,0.4v2.3c0,0.2,0.2,0.4,0.4,0.4h8.6c0.2,0,0.4-0.2,0.4-0.4v-2.3
			c0-0.2-0.2-0.4-0.4-0.4c0.1-0.9,0.6-1.5,1.1-2.1C15.3,14.1,16.1,13.2,15.8,11.7L15.8,11.7z M12.8,16.9H11c-0.2,0-0.4,0.2-0.4,0.4
			c0,0.2,0.2,0.4,0.4,0.4h2.2v1.6H5.3v-1.6h2.2c0.2,0,0.4-0.2,0.4-0.4c0-0.2-0.2-0.4-0.4-0.4H5.6c-0.1-0.6-0.2-1.2-0.4-1.7
			c-0.2-0.7-0.4-1.3-0.4-1.9V9.9c0-1.7,0-1.9,0-2.3c0-0.3,0-0.8,0.1-1.9C5,5.3,5.3,5,5.6,5C6,5,6.3,5.3,6.3,5.7v3.2
			c0,0.2,0.2,0.4,0.4,0.4l0,0c0.2,0,0.4-0.2,0.4-0.4l0.1-6c0-0.4,0.3-0.8,0.7-0.8c0.4,0,0.7,0.4,0.7,0.8L8.5,8.8
			c0,0.2,0.2,0.4,0.4,0.4l0,0c0.2,0,0.4-0.2,0.4-0.4l0.1-7.2c0-0.4,0.3-0.8,0.7-0.8s0.7,0.4,0.7,0.8v2l-0.1,5.2
			c0,0.2,0.2,0.4,0.4,0.4l0,0c0.2,0,0.4-0.2,0.4-0.4l0.1-5.2c0-0.4,0.3-0.8,0.7-0.8S13,3.2,13,3.6v5.7c-0.4,0.6-0.4,1.2-0.5,1.9
			c-0.1,0.1-0.5,0.1-0.8,0.2c-1.1,0.1-3.1,0.4-3.1,3.5c0,0.2,0.2,0.4,0.4,0.4s0.4-0.2,0.4-0.4c0-1.1,0.3-1.8,0.8-2.3
			c0.5-0.4,1.1-0.4,1.6-0.5c0.6-0.1,1.2-0.2,1.4-0.6c0-0.1,0.1-0.1,0.1-0.2c0-0.8,0-1.4,0.5-1.8c0.3-0.3,0.7-0.3,0.9-0.2
			C15,9.4,15,9.4,15,9.5s0,0.2,0,0.3c-0.1,0.4-0.1,1,0,2.1c0.2,1.2-0.3,1.7-1,2.5C13.5,14.9,12.9,15.7,12.8,16.9L12.8,16.9z"/>
	</g>
	<path class="st0" d="M9.2,16.9L9.2,16.9c-0.2,0-0.4,0.2-0.4,0.4c0,0.2,0.2,0.4,0.4,0.4s0.4-0.2,0.4-0.4C9.6,17,9.4,16.9,9.2,16.9
		L9.2,16.9z"/>
</g>
</svg>
