<?xml version="1.0" encoding="utf-8"?>
<!-- Generator: Adobe Illustrator 19.2.1, SVG Export Plug-In . SVG Version: 6.00 Build 0)  -->
<svg version="1.1" id="Capa_1" xmlns="http://www.w3.org/2000/svg" xmlns:xlink="http://www.w3.org/1999/xlink" x="0px" y="0px"
	 viewBox="0 0 186 160" style="enable-background:new 0 0 186 160;" xml:space="preserve">
<style type="text/css">
	.st0{fill:#BDE1E3;}
	.st1{opacity:0.73;fill:#86CBC5;enable-background:new    ;}
	.st2{fill:#F8AD36;}
	.st3{fill:#F3923B;}
	.st4{fill:#EE763B;}
	.st5{fill:#40B7AD;}
	.st6{fill:#7B4D12;}
	.st7{fill:#FFFFFF;}
	.st8{fill:#E5E7E7;}
	.st9{fill:#90D0D3;}
	.st10{fill:#D9DADB;}
	.st11{fill:#17B09C;}
</style>
<g id="XMLID_1806_">
	<g id="XMLID_5211_">
		<g id="XMLID_5258_">
			<circle id="XMLID_5260_" class="st0" cx="92.3" cy="84.8" r="62.3"/>
			<path id="XMLID_5259_" class="st1" d="M143.1,99.8v20.9c-2.3,3.2-4.9,6.2-7.7,9V99.8h0v-0.1c0-0.2-3.8-3.3-6.7-5.6v-1.3l3.5-0.9
				c1.4-0.4,2.9-0.3,4.3,0.3c0.6,0.3,1.2,0.5,1.9,0.7v2.7C141.2,98,143.1,99.5,143.1,99.8L143.1,99.8L143.1,99.8L143.1,99.8
				L143.1,99.8z"/>
		</g>
		<g id="XMLID_5212_">
			<g id="XMLID_5254_">
				<polygon id="XMLID_5257_" class="st2" points="3.7,4.9 21.9,47.8 35.3,38.7 43,49.9 44.4,30.9 60.6,21.1 				"/>
				<polygon id="XMLID_5256_" class="st3" points="38.2,36.6 21.9,47.8 35.3,38.7 43,49.9 44.4,30.9 18.7,15.6 				"/>
				<polygon id="XMLID_5255_" class="st4" points="44.1,35.6 18.7,15.6 44.4,30.9 				"/>
			</g>
			<g id="XMLID_5236_">
				<path id="XMLID_5253_" class="st5" d="M43.3,55.2c-0.1-0.8-0.3-1.7-0.5-2.5l1.3-0.3c0.2,0.8,0.4,1.7,0.6,2.6L43.3,55.2z"/>
				<path id="XMLID_5238_" class="st5" d="M28.2,84.4c-1.9-0.1-3.7-0.7-5.2-1.7l0.7-1.1c1.3,0.9,2.9,1.4,4.6,1.5L28.2,84.4z
					 M33.6,83.3L33,82.1c1.3-0.7,2.7-1.7,3.9-3.1l1,0.9C36.5,81.4,35.1,82.6,33.6,83.3z M19.4,78.5c-0.7-1.5-1.1-3.1-1.1-4.7
					c0-0.1,0-0.3,0-0.4l0-0.3l1.3,0.1l0,0.2c0,0.1,0,0.2,0,0.3c0,1.4,0.3,2.8,1,4.1L19.4,78.5z M69.6,78.2l0-1.3
					c1.7,0,3.4-0.1,5.2-0.2l0.1,1.3C73.1,78.1,71.3,78.2,69.6,78.2z M64.3,78l-0.8-0.1c-1.6-0.1-3-0.3-4.4-0.6l0.2-1.3
					c1.3,0.2,2.7,0.4,4.3,0.5l0.8,0.1L64.3,78z M80.1,77.4l-0.2-1.3c1.7-0.2,3.4-0.5,5.1-0.8l0.2,1.3C83.5,76.9,81.7,77.2,80.1,77.4
					z M53.9,76.1c-1.5-0.5-3-1.2-4.2-1.9c-0.2-0.1-0.4-0.2-0.6-0.4l0.7-1.1c0.2,0.1,0.4,0.2,0.6,0.3c1.2,0.7,2.6,1.3,4,1.8
					L53.9,76.1z M41,75.6l-1.1-0.6c0.8-1.5,1.6-3,2.1-4.6l1.2,0.4C42.6,72.4,41.8,74.1,41,75.6z M90.4,75.5l-0.3-1.3
					c1.6-0.4,3.3-0.8,5-1.3l0.4,1.2C93.7,74.6,92,75.1,90.4,75.5z M100.4,72.6l-0.4-1.2c1.6-0.5,3.3-1.1,4.9-1.7l0.4,1.2
					C103.7,71.5,102.1,72,100.4,72.6z M44.7,70.9c-1.2-0.9-2.5-1.8-3.9-2.5l-0.4-0.2L41,67c0.2,0.1,0.3,0.2,0.5,0.2
					c1.5,0.8,2.8,1.8,4,2.6L44.7,70.9z M21.4,68.9L20.5,68c1.1-1.1,2.7-2,4.8-2.6l0.4,1.2C23.8,67.2,22.4,68,21.4,68.9z M35.7,66.4
					c-1.5-0.3-3-0.5-4.5-0.5l-0.5,0l0-1.3c1.8,0,3.6,0.1,5.3,0.5L35.7,66.4z M44.6,65.6l-1.3-0.2c0.3-1.7,0.5-3.4,0.5-5.1l1.3,0
					C45,62.1,44.9,63.9,44.6,65.6z"/>
				<path id="XMLID_5237_" class="st5" d="M110.4,69.1l-0.5-1.2c0.8-0.3,1.6-0.6,2.4-0.9l0.5,1.2C112,68.4,111.2,68.8,110.4,69.1z"
					/>
			</g>
			<path id="XMLID_5235_" class="st5" d="M151.2,100.7c-0.7,0-1.2-0.5-1.3-1.2c-0.1-0.7,0.5-1.3,1.2-1.4c7.8-0.8,15-4.5,20.3-10.5
				c0.5-0.5,1.3-0.6,1.8-0.1c0.5,0.5,0.6,1.3,0.1,1.8c-5.7,6.5-13.5,10.6-22,11.4C151.3,100.7,151.2,100.7,151.2,100.7z"/>
			<g id="XMLID_5222_">
				<g id="XMLID_5223_">
					<path id="XMLID_5234_" class="st6" d="M135.4,99.8l-45.2,26.6L45,99.8c0,0,0-0.1,0-0.1c0-0.2,2.5-2.3,6.3-5.3
						c0,0,0.1-0.1,0.1-0.1c12.5-10.1,38.7-30.9,38.7-30.9s26.3,20.7,38.7,30.9C132.8,97.4,135.3,99.5,135.4,99.8
						C135.4,99.7,135.4,99.7,135.4,99.8z"/>
					<g id="XMLID_5227_">
						<path id="XMLID_5233_" class="st7" d="M108.8,41.3H60c-4.2,0-7.6,3.4-7.6,7.6v73.7c0,4.2,3.4,7.6,7.6,7.6h61.1
							c4.2,0,7.6-3.4,7.6-7.6V61.2L108.8,41.3z"/>
						<path id="XMLID_5232_" class="st8" d="M108.8,53.7c0,4.2,3.4,7.6,7.6,7.6h12.3l-19.9-19.9V53.7z"/>
						<path id="XMLID_5231_" class="st9" d="M83.5,53.8H66.7c-1.5,0-2.7,1.2-2.7,2.7v16.8c0,1.5,1.2,2.7,2.7,2.7h16.8
							c1.5,0,2.7-1.2,2.7-2.7V56.5C86.2,55,85,53.8,83.5,53.8z"/>
						<path id="XMLID_5230_" class="st10" d="M106.5,82.2H66.2c-1.2,0-2.2,1-2.2,2.2l0,0c0,1.2,1,2.2,2.2,2.2h40.4
							c1.2,0,2.2-1,2.2-2.2l0,0C108.7,83.1,107.7,82.2,106.5,82.2z"/>
						<path id="XMLID_5229_" class="st10" d="M106.5,93H66.2C65,93,64,94,64,95.2l0,0c0,1.2,1,2.2,2.2,2.2h40.4c1.2,0,2.2-1,2.2-2.2
							l0,0C108.7,94,107.7,93,106.5,93z"/>
						<path id="XMLID_5228_" class="st10" d="M88.2,103.5h-22c-1.2,0-2.2,1-2.2,2.2l0,0c0,1.2,1,2.2,2.2,2.2h22c1.2,0,2.2-1,2.2-2.2
							l0,0C90.4,104.5,89.4,103.5,88.2,103.5z"/>
					</g>
					<g id="XMLID_5224_">
						<path id="XMLID_5226_" class="st2" d="M135.4,99.8v43.3c0,3-2.5,5.5-5.5,5.5H50.5c-3,0-5.5-2.5-5.5-5.5V99.8l45.2,26.6
							L135.4,99.8z"/>
						<path id="XMLID_5225_" class="st3" d="M133.9,146.9l-29.1-29.1l-14.6,8.6l-14.6-8.6l-29.1,29.1c1,1.1,2.4,1.7,4,1.7h79.4
							C131.4,148.6,132.8,147.9,133.9,146.9z"/>
					</g>
				</g>
			</g>
			<g id="XMLID_5214_">
				<g id="XMLID_5216_">
					<path id="XMLID_5221_" class="st5" d="M144.5,40.3c-13,1.3-23.4,12-24.3,25c-0.5,6.5,1.4,12.5,4.8,17.4
						c1.3,1.8,1.5,4.2,0.6,6.3l-2.1,5.2l8.8-2.3c1.4-0.4,2.9-0.3,4.3,0.3c4.1,1.8,8.6,2.6,13.5,2.1C162.7,93,173,82.7,174.3,70
						C175.9,52.8,161.6,38.6,144.5,40.3z"/>
					<g id="XMLID_5217_">
						<path id="XMLID_5220_" class="st7" d="M147.9,81l1.5-1.5c0,0-1.2-2.8,3.8-7.5c3-2.8,3.6-5.5,3.4-7.7c-0.4-3.5-3.3-6.4-6.8-6.8
							c-2.2-0.2-4.9,0.4-7.7,3.4c-4.7,5-7.5,3.8-7.5,3.8l-1.5,1.5L147.9,81z"/>
						<path id="XMLID_5219_" class="st7" d="M136.4,71.9c-1.2,1.6-1,3.9,0.4,5.3c1.5,1.5,3.7,1.6,5.3,0.4L136.4,71.9z"/>
						<path id="XMLID_5218_" class="st7" d="M157.6,59.3l-0.9,0.9c-0.7-1.2-1.7-2.1-2.9-2.8l0.9-0.9c0.8-0.8,2.1-0.8,2.9,0
							C158.4,57.2,158.4,58.5,157.6,59.3z"/>
					</g>
				</g>
				<path id="XMLID_5215_" class="st11" d="M146.5,40.1c9.7,2.9,16.7,11.8,16.7,22.5c0,13-10.5,23.5-23.4,23.5
					c-6.8,0-12.9-2.9-17.2-7.6c0.7,1.5,1.5,2.9,2.4,4.2c1.3,1.8,1.5,4.2,0.6,6.3l-2.1,5.2l8.8-2.3c1.4-0.4,2.9-0.3,4.3,0.3
					c4.1,1.8,8.6,2.6,13.5,2.1C162.7,93,173,82.7,174.3,70C175.8,53.5,162.7,39.7,146.5,40.1z"/>
			</g>
			<path id="XMLID_5213_" class="st2" d="M5.2,17.6l5.9,13.6c0.3,0.7,0,1.5-0.7,1.8l-0.2,0.1c-0.7,0.3-1.5,0-1.8-0.7L2.7,18.7
				c-0.3-0.7,0.1-1.5,0.8-1.8l0,0C4.2,16.6,4.9,17,5.2,17.6z"/>
		</g>
	</g>
	<g id="XMLID_1807_">
		<path id="XMLID_5208_" class="st0" d="M28.4,113.3c-2.4,0-4.4,1.9-4.4,4.4c0,2.4,2,4.4,4.4,4.4s4.4-2,4.4-4.4
			C32.8,115.3,30.8,113.3,28.4,113.3z M28.4,119.4c-1,0-1.8-0.8-1.8-1.8s0.8-1.8,1.8-1.8c1,0,1.8,0.8,1.8,1.8
			C30.2,118.7,29.4,119.4,28.4,119.4z"/>
		<path id="XMLID_5205_" class="st0" d="M145.2,131c-2.4,0-4.4,1.9-4.4,4.4s1.9,4.4,4.4,4.4s4.4-1.9,4.4-4.4S147.6,131,145.2,131z
			 M145.2,137.1c-1,0-1.8-0.8-1.8-1.8c0-1,0.8-1.8,1.8-1.8s1.8,0.8,1.8,1.8C146.9,136.3,146.1,137.1,145.2,137.1z"/>
		<path id="XMLID_5181_" class="st0" d="M180.8,63.3c-1.8,0-3.3,1.5-3.3,3.3c0,1.8,1.5,3.3,3.3,3.3c1.8,0,3.3-1.5,3.3-3.3
			C184.1,64.8,182.6,63.3,180.8,63.3z M180.8,68c-0.7,0-1.4-0.6-1.4-1.4s0.6-1.4,1.4-1.4s1.4,0.6,1.4,1.4
			C182.2,67.4,181.6,68,180.8,68z"/>
		<path id="XMLID_4962_" class="st0" d="M122.1,9.9c-1.9,0-3.5,1.6-3.5,3.5s1.6,3.5,3.5,3.5c1.9,0,3.5-1.6,3.5-3.5
			S124,9.9,122.1,9.9z M122.1,14.9c-0.8,0-1.4-0.6-1.4-1.4s0.6-1.4,1.4-1.4c0.8,0,1.4,0.6,1.4,1.4S122.9,14.9,122.1,14.9z"/>
		<circle id="XMLID_4961_" class="st0" cx="9.3" cy="95.8" r="3.7"/>
		<circle id="XMLID_3933_" class="st0" cx="158" cy="107.1" r="2.7"/>
		<circle id="XMLID_3932_" class="st0" cx="68.7" cy="15" r="3.9"/>
		<circle id="XMLID_3931_" class="st0" cx="89.8" cy="156.7" r="2.9"/>
		<circle id="XMLID_3930_" class="st0" cx="145.4" cy="29.6" r="3.4"/>
		<circle id="XMLID_3929_" class="st0" cx="26" cy="54.4" r="1.9"/>
		<circle id="XMLID_3927_" class="st0" cx="182" cy="49.8" r="3.3"/>
		<circle id="XMLID_3925_" class="st0" cx="7.4" cy="65.9" r="2.1"/>
		<path id="XMLID_3924_" class="st0" d="M95.2,4l1.3-1.3c0.5-0.5,0.5-1.2,0-1.7s-1.2-0.5-1.7,0l-1.3,1.3l-1.3-1.3
			c-0.5-0.5-1.2-0.5-1.7,0s-0.5,1.2,0,1.7L91.9,4l-1.3,1.3c-0.5,0.5-0.5,1.2,0,1.7s1.2,0.5,1.7,0l1.3-1.3L94.9,7
			c0.5,0.5,1.2,0.5,1.7,0s0.5-1.2,0-1.7L95.2,4z"/>
		<path id="XMLID_3923_" class="st0" d="M5.9,43.7l1.3-1.3c0.5-0.5,0.5-1.2,0-1.7c-0.5-0.5-1.2-0.5-1.7,0L4.3,42L3,40.7
			c-0.5-0.5-1.2-0.5-1.7,0c-0.5,0.5-0.5,1.2,0,1.7l1.3,1.3L1.3,45c-0.5,0.5-0.5,1.2,0,1.7s1.2,0.5,1.7,0l1.3-1.3l1.3,1.3
			c0.5,0.5,1.2,0.5,1.7,0s0.5-1.2,0-1.7L5.9,43.7z"/>
		<path id="XMLID_3922_" class="st0" d="M160.7,123.8l1.1-1.1c0.4-0.4,0.4-1,0-1.4c-0.4-0.4-1-0.4-1.4,0l-1.1,1.1l-1.1-1.1
			c-0.4-0.4-1-0.4-1.4,0c-0.4,0.4-0.4,1,0,1.4l1.1,1.1l-1.1,1.1c-0.4,0.4-0.4,1,0,1.4c0.4,0.4,1,0.4,1.4,0l1.1-1.1l1.1,1.1
			c0.4,0.4,1,0.4,1.4,0c0.4-0.4,0.4-1,0-1.4L160.7,123.8z"/>
	</g>
</g>
</svg>
