<?xml version="1.0" encoding="utf-8"?>
<!-- Generator: Adobe Illustrator 23.1.0, SVG Export Plug-In . SVG Version: 6.00 Build 0)  -->
<svg version="1.1" id="Capa_1" xmlns="http://www.w3.org/2000/svg" xmlns:xlink="http://www.w3.org/1999/xlink" x="0px" y="0px"
	 viewBox="0 0 281 153" style="enable-background:new 0 0 281 153;" xml:space="preserve">
<style type="text/css">
	.st0{fill:#607700;}
	.st1{fill:#F3923B;}
	.st2{opacity:0.5;fill:#5DA59A;enable-background:new    ;}
	.st3{fill:#F8AD36;}
	
		.st4{opacity:0.38;fill:none;stroke:#79227C;stroke-width:1.5;stroke-linecap:round;stroke-linejoin:round;stroke-miterlimit:10;enable-background:new    ;}
	.st5{fill:#5E5E5E;}
	.st6{fill:#424242;}
	.st7{opacity:0.7;fill:#FFFFFF;enable-background:new    ;}
	.st8{fill:#00695A;}
	.st9{fill:#FFFFFF;}
</style>
<rect y="-0.9" class="st0" width="90" height="153.9"/>
<rect x="80.6" class="st0" width="200.4" height="153"/>
<g id="XMLID_5268_">
	<g>
		<g id="XMLID_5298_">
			<g id="XMLID_5307_">
				<path id="XMLID_5308_" class="st1" d="M38.8,38.6c-0.4-0.1-0.7-0.5-0.9-0.9l-4-14.4c-0.2-0.7,0.2-1.5,0.9-1.7s1.5,0.2,1.7,0.9
					l4,14.4c0.2,0.7-0.2,1.5-0.9,1.7C39.3,38.7,39.1,38.6,38.8,38.6z"/>
			</g>
			<g id="XMLID_5305_">
				<path id="XMLID_5306_" class="st1" d="M24.8,48.8c-0.1-0.1-0.2-0.1-0.3-0.2l-10.2-11c-0.5-0.5-0.5-1.4,0.1-1.9
					c0.5-0.5,1.4-0.5,1.9,0.1l10.2,10.9c0.5,0.5,0.5,1.4-0.1,1.9C26,49,25.3,49.1,24.8,48.8z"/>
			</g>
			<g id="XMLID_5303_">
				<path id="XMLID_5304_" class="st1" d="M18.6,62.7c-0.1,0-0.1,0-0.2-0.1L4.6,57c-0.7-0.3-1-1.1-0.7-1.8s1.1-1,1.8-0.7l13.8,5.7
					c0.7,0.3,1,1.1,0.7,1.8C19.9,62.5,19.3,62.9,18.6,62.7z"/>
			</g>
			<g id="XMLID_5301_">
				<path id="XMLID_5302_" class="st1" d="M53.1,38c-0.6-0.2-1-0.9-0.9-1.5L55,21.8c0.1-0.7,0.8-1.2,1.6-1.1
					c0.7,0.1,1.2,0.8,1.1,1.6L54.8,37c-0.1,0.7-0.9,1.2-1.6,1.1C53.2,38,53.1,38,53.1,38z"/>
			</g>
			<g id="XMLID_5299_">
				<path id="XMLID_5300_" class="st1" d="M67.2,44.8L67.2,44.8c-0.7-0.4-0.9-1.2-0.5-1.8l7.4-13c0.4-0.6,1.2-0.9,1.8-0.5
					c0.6,0.4,0.9,1.2,0.5,1.8l-7.4,13C68.7,45,67.9,45.2,67.2,44.8z"/>
			</g>
		</g>
		<g id="XMLID_5282_">
			<path id="XMLID_5297_" class="st2" d="M72.5,129.1l4.1-3.8l-4.2-2.6l1.9-3.7l-4.8-1.4c-0.8-3-2.8-11.8-0.2-20.7
				c4.2-14.2,4.4-18.8,3.1-25.6c-4.2-20.9-19.2-22.6-29.2-21.9c-13,0.9-24.4,20.9-15.5,38.7c1.1,2.1,2.2,4.8,18.6,18
				c7.1,5.7,7.6,10.3,10.4,16.4l-3.8,4.7l3.6,2.1l-0.3,4.6l5.5-1l-0.8,5.7l14.9-4.7L72.5,129.1z"/>
			<g id="XMLID_5283_">
				<g id="XMLID_5285_">
					<path id="XMLID_5296_" class="st3" d="M61,121.5c-3-6.3-3.4-11.1-10.7-16.9c-16.5-13.2-17.6-15.9-18.6-18
						c-9-17.8,2.4-37.8,15.5-38.7c10-0.7,25.1,1,29.2,21.9c1.3,6.8,1.1,11.4-3.1,25.6c-3.3,11,0.5,21.7,0.5,21.8
						C73.8,117.2,61,121.5,61,121.5z"/>
					<g id="XMLID_5291_">
						<path id="XMLID_5295_" class="st1" d="M66.1,118.9c-3-6.3-3.4-11.1-10.7-16.9C39,88.9,37.9,86.2,36.8,84.1
							c-7-13.9-1.6-29.2,7.4-35.6C32.5,52,23.4,70.2,31.7,86.7c1.1,2.1,2.2,4.8,18.6,18c7.3,5.8,7.6,10.6,10.7,16.9L66.1,118.9z"/>
					</g>
					<path id="XMLID_5290_" class="st4" d="M71.4,118.4c-3.9-7.3-6.8-16.3-6.7-25.1c0-1.1,0-4.8,0.9-4.5c0.9,0.4,1.7,5.2,1.9,6.4
						c0.6,3.2,2.4,18.3-0.1,17.9c-2.9-0.5-5.7-8.3-7.5-12.6c-2.3-5.6-4.5-12-5-18.4c-0.3-3.9,1.1-4.9,2.9-2c3.7,5.9,5.5,17.4,6.7,25
						c0.5,2.9,2.3,11.5-0.3,10.5c-1.5-0.6-3.6-4-5-5.9c-2.3-3.2-4.5-7.3-5.8-12.1c-0.2-0.9-1.1-4.3-0.9-5.1
						c2.5-7,12.6,31.4,12.6,31.4"/>
					<polygon id="XMLID_5289_" class="st5" points="61.1,120.6 57,125.7 60.5,127.7 60.2,132.3 65.7,131.4 64.9,137 79.7,132.3 
						76.6,127.6 80.7,123.8 76.4,121.2 78.3,117.5 73.2,116 					"/>
					<g id="XMLID_5286_">
						<polygon id="XMLID_5287_" class="st6" points="71.5,134.3 72.3,128.6 66.8,129.6 67.1,125 63.6,122.9 67.4,118.2 61.1,120.6 
							57,125.7 60.5,127.7 60.2,132.3 65.7,131.4 64.9,137 79.7,132.3 79.4,131.8 						"/>
					</g>
				</g>
				<path id="XMLID_5284_" class="st7" d="M47,51.9c0,0,25.6-1.4,26.1,22.5"/>
			</g>
		</g>
	</g>
	<g id="XMLID_5269_">
		<g id="XMLID_5276_">
			<g id="XMLID_5277_">
				<path id="XMLID_5278_" class="st8" d="M87,53.6h12.5v3.8h-8v4h6.8v3.8h-6.8v4.6h8.3v3.8H87V53.6z"/>
				<path id="XMLID_5358_" class="st8" d="M104,69c1.4,1,2.6,1.6,3.9,1.6s1.9-0.5,1.9-1.3c0-1-1.5-1.5-3.1-2.1c-1.8-0.7-4-2-4-4.5
					c0-2.8,2.3-4.7,5.8-4.7c2.3,0,4,0.9,5.4,1.9l-2,2.7c-1.1-0.8-2.1-1.3-3.2-1.3c-1.2,0-1.7,0.4-1.7,1.2c0,1,1.4,1.3,3,1.9
					c1.9,0.7,4.1,1.8,4.1,4.6c0,2.8-2.2,4.9-6.2,4.9c-2,0-4.3-0.9-5.8-2.1L104,69z"/>
				<path id="XMLID_5360_" class="st8" d="M122.9,53.8c0-1.4,1.1-2.3,2.6-2.3s2.6,0.9,2.6,2.3c0,1.4-1.1,2.4-2.6,2.4
					C124,56.1,122.9,55.1,122.9,53.8z M123.3,58.3h4.5v15.2h-4.5V58.3z"/>
				<path id="XMLID_5363_" class="st8" d="M131.7,58.3h3.7l0.3,2h0.1c1.3-1.3,2.6-2.3,4.6-2.3c2.1,0,3.4,0.9,4.2,2.5
					c1.3-1.4,2.8-2.5,4.8-2.5c3.3,0,4.7,2.3,4.7,6.1v9.4h-4.5v-8.8c0-2.2-0.6-2.9-1.9-2.9c-0.8,0-1.6,0.5-2.6,1.5v10.3h-4.5v-8.8
					c0-2.2-0.6-2.9-1.9-2.9c-0.7,0-1.6,0.5-2.6,1.5v10.3h-4.5L131.7,58.3L131.7,58.3z"/>
				<path id="XMLID_5365_" class="st8" d="M162.5,74.7v4.4H158V58.3h3.7l0.3,1.5h0.1c1.2-1.1,2.7-1.9,4.3-1.9c3.7,0,5.9,3,5.9,7.7
					c0,5.2-3.1,8.2-6.4,8.2c-1.3,0-2.5-0.6-3.6-1.6L162.5,74.7z M164.9,70.2c1.6,0,2.8-1.3,2.8-4.5c0-2.7-0.8-4.1-2.6-4.1
					c-0.9,0-1.7,0.4-2.6,1.4v6.2C163.3,70,164.1,70.2,164.9,70.2z"/>
				<path id="XMLID_5378_" class="st8" d="M182,58c3.8,0,7.4,2.9,7.4,8s-3.5,8-7.4,8s-7.4-2.9-7.4-8S178.2,58,182,58z M182,70.3
					c1.8,0,2.8-1.7,2.8-4.3c0-2.6-0.9-4.3-2.8-4.3c-1.9,0-2.8,1.7-2.8,4.3S180.2,70.3,182,70.3z"/>
				<path id="XMLID_5381_" class="st8" d="M192.5,58.3h3.7l0.3,2.7h0.1c1.1-2,2.8-3,4.3-3c0.9,0,1.4,0.1,1.8,0.3l-0.7,3.9
					c-0.6-0.2-1-0.2-1.7-0.2c-1.1,0-2.5,0.7-3.3,2.8v8.8h-4.5L192.5,58.3L192.5,58.3z"/>
				<path id="XMLID_5383_" class="st8" d="M205.3,61.9h-2.1v-3.3l2.3-0.2l0.5-4h3.7v4h3.6v3.5h-3.6V68c0,1.7,0.8,2.4,2,2.4
					c0.5,0,1-0.2,1.4-0.3l0.7,3.3c-0.8,0.2-1.9,0.6-3.4,0.6c-3.8,0-5.2-2.4-5.2-5.9v-6.2H205.3z"/>
				<path id="XMLID_5385_" class="st8" d="M224,63.8c-0.1-1.3-0.8-2.2-2.4-2.2c-1.3,0-2.6,0.5-4,1.4l-1.6-3c1.9-1.2,4.1-2,6.5-2
					c3.9,0,6,2.2,6,6.9v8.7h-3.7l-0.3-1.6h-0.1c-1.3,1.1-2.7,1.9-4.4,1.9c-2.8,0-4.5-2-4.5-4.6C215.5,66.1,218,64.4,224,63.8z
					 M221.5,70.4c1,0,1.7-0.5,2.5-1.3v-2.7c-3.2,0.4-4.3,1.3-4.3,2.5C219.8,69.9,220.4,70.4,221.5,70.4z"/>
				<path id="XMLID_5388_" class="st8" d="M232.4,58.3h3.7l0.3,1.9h0.1c1.3-1.2,2.8-2.3,4.9-2.3c3.3,0,4.7,2.3,4.7,6.1v9.4h-4.5
					v-8.8c0-2.2-0.6-2.9-1.9-2.9c-1.1,0-1.8,0.5-2.8,1.5v10.3h-4.5V58.3L232.4,58.3z"/>
				<path id="XMLID_5390_" class="st8" d="M250.5,61.9h-2.1v-3.3l2.3-0.2l0.5-4h3.7v4h3.6v3.5H255V68c0,1.7,0.8,2.4,2,2.4
					c0.5,0,1-0.2,1.4-0.3l0.7,3.3c-0.8,0.2-1.9,0.6-3.4,0.6c-3.8,0-5.2-2.4-5.2-5.9L250.5,61.9L250.5,61.9z"/>
				<path id="XMLID_5392_" class="st8" d="M267.6,58c4.3,0,6.5,3.2,6.5,7.3c0,0.8-0.1,1.5-0.2,1.9h-9.1c0.4,2.3,1.9,3.3,3.9,3.3
					c1.1,0,2.2-0.3,3.3-1l1.5,2.7c-1.6,1.1-3.6,1.7-5.4,1.7c-4.3,0-7.7-2.9-7.7-8C260.4,61,263.9,58,267.6,58z M270.2,64.4
					c0-1.7-0.7-3-2.5-3c-1.4,0-2.6,0.9-2.9,3H270.2z"/>
			</g>
			<g id="XMLID_3928_">
				<path id="XMLID_5267_" class="st9" d="M86.7,56H99v3.8h-7.9v4h6.7v3.7h-6.7V72h8.2v3.8H86.7V56z"/>
				<path id="XMLID_5330_" class="st9" d="M103.5,71.2c1.4,1,2.6,1.6,3.9,1.6s1.9-0.5,1.9-1.3c0-1-1.5-1.5-3.1-2.1
					c-1.8-0.7-4-1.9-4-4.4c0-2.8,2.3-4.7,5.8-4.7c2.3,0,4,0.9,5.3,1.9l-2,2.7c-1.1-0.8-2.1-1.3-3.2-1.3c-1.2,0-1.7,0.4-1.7,1.2
					c0,1,1.4,1.3,2.9,1.9c1.9,0.7,4.1,1.8,4.1,4.5s-2.2,4.8-6.2,4.8c-2,0-4.2-0.8-5.8-2.1L103.5,71.2z"/>
				<path id="XMLID_5332_" class="st9" d="M122.2,56.2c0-1.4,1.1-2.3,2.6-2.3s2.6,0.9,2.6,2.3c0,1.4-1.1,2.3-2.6,2.3
					C123.3,58.5,122.2,57.5,122.2,56.2z M122.6,60.7h4.4v15h-4.4V60.7z"/>
				<path id="XMLID_5335_" class="st9" d="M130.9,60.7h3.6l0.3,1.9h0.1c1.2-1.2,2.6-2.3,4.5-2.3c2.1,0,3.4,0.9,4.1,2.5
					c1.3-1.4,2.7-2.5,4.7-2.5c3.2,0,4.7,2.3,4.7,6.1v9.3h-4.5V67c0-2.2-0.6-2.8-1.8-2.8c-0.8,0-1.6,0.5-2.6,1.5v10.1h-4.4V67
					c0-2.2-0.6-2.8-1.8-2.8c-0.7,0-1.6,0.5-2.5,1.5v10.1h-4.4L130.9,60.7L130.9,60.7z"/>
				<path id="XMLID_5337_" class="st9" d="M161.3,76.9v4.4h-4.4V60.7h3.6l0.3,1.5h0.1c1.2-1.1,2.7-1.8,4.3-1.8c3.6,0,5.9,3,5.9,7.6
					c0,5.1-3.1,8.1-6.3,8.1c-1.3,0-2.5-0.6-3.6-1.6L161.3,76.9z M163.7,72.5c1.5,0,2.8-1.3,2.8-4.4c0-2.7-0.8-4.1-2.6-4.1
					c-0.9,0-1.7,0.4-2.6,1.4v6.1C162.1,72.2,163,72.5,163.7,72.5z"/>
				<path id="XMLID_5340_" class="st9" d="M180.7,60.4c3.8,0,7.3,2.9,7.3,7.9s-3.5,7.9-7.3,7.9s-7.3-2.9-7.3-7.9
					S176.8,60.4,180.7,60.4z M180.7,72.5c1.8,0,2.8-1.7,2.8-4.3c0-2.6-0.9-4.3-2.8-4.3c-1.8,0-2.8,1.7-2.8,4.3
					C177.9,70.8,178.8,72.5,180.7,72.5z"/>
				<path id="XMLID_5343_" class="st9" d="M191,60.7h3.6l0.3,2.6h0.1c1.1-2,2.7-3,4.3-3c0.8,0,1.4,0.1,1.8,0.3l-0.7,3.8
					c-0.5-0.2-1-0.2-1.6-0.2c-1.1,0-2.5,0.7-3.3,2.8v8.7H191V60.7z"/>
				<path id="XMLID_5345_" class="st9" d="M203.7,64.2h-2.1v-3.3l2.3-0.2l0.5-4h3.7v4h3.6v3.5h-3.6v6c0,1.7,0.8,2.4,1.9,2.4
					c0.5,0,1-0.2,1.4-0.3l0.7,3.2c-0.8,0.2-1.9,0.5-3.3,0.5c-3.7,0-5.2-2.3-5.2-5.8v-6H203.7z"/>
				<path id="XMLID_5347_" class="st9" d="M222.2,66.1c-0.1-1.3-0.8-2.2-2.4-2.2c-1.3,0-2.5,0.5-4,1.4l-1.6-2.9c1.9-1.2,4.1-2,6.4-2
					c3.8,0,6,2.2,6,6.8v8.6H223l-0.3-1.5h-0.1c-1.3,1.1-2.7,1.9-4.4,1.9c-2.7,0-4.5-2-4.5-4.5C213.7,68.4,216.3,66.7,222.2,66.1z
					 M219.7,72.7c1,0,1.7-0.5,2.5-1.3v-2.6c-3.2,0.4-4.2,1.3-4.2,2.5C218,72.2,218.6,72.7,219.7,72.7z"/>
				<path id="XMLID_5350_" class="st9" d="M230.5,60.7h3.6l0.3,1.9h0.1c1.3-1.2,2.8-2.3,4.8-2.3c3.3,0,4.7,2.3,4.7,6.1v9.3h-4.4V67
					c0-2.2-0.6-2.8-1.8-2.8c-1.1,0-1.8,0.5-2.8,1.5v10.1h-4.4L230.5,60.7L230.5,60.7z"/>
				<path id="XMLID_5352_" class="st9" d="M248.4,64.2h-2.1v-3.3l2.3-0.2l0.5-4h3.7v4h3.6v3.5h-3.6v6c0,1.7,0.8,2.4,1.9,2.4
					c0.5,0,1-0.2,1.4-0.3l0.7,3.2c-0.8,0.2-1.9,0.5-3.3,0.5c-3.7,0-5.2-2.3-5.2-5.8v-6H248.4z"/>
				<path id="XMLID_5354_" class="st9" d="M265.3,60.4c4.3,0,6.4,3.1,6.4,7.2c0,0.8-0.1,1.5-0.2,1.9h-9c0.4,2.3,1.9,3.3,3.9,3.3
					c1.1,0,2.1-0.3,3.2-1l1.5,2.7c-1.5,1.1-3.5,1.7-5.3,1.7c-4.3,0-7.6-2.9-7.6-7.9C258.2,63.4,261.7,60.4,265.3,60.4z M267.9,66.7
					c0-1.7-0.7-2.9-2.5-2.9c-1.4,0-2.6,0.9-2.9,2.9H267.9z"/>
			</g>
		</g>
		<g id="XMLID_5270_">
			<g id="XMLID_5272_">
				<path id="XMLID_5274_" class="st8" d="M130.7,90.1c2.3,0,4.1,0.8,5.7,2.7h0.2l0.6-2.2h5.9v29.9h-7.6v-6.3l0.3-3.1
					c-1.3,1.3-3.4,2.2-5.1,2.2c-5.5,0-9-4.4-9-11.6C121.7,94.4,126.2,90.1,130.7,90.1z M132.7,107c1.1,0,2-0.4,2.8-1.6v-8.1
					c-0.9-0.8-2-1.1-3-1.1c-1.6,0-3.1,1.4-3.1,5.3C129.5,105.5,130.7,107,132.7,107z"/>
				<path id="XMLID_5411_" class="st8" d="M148.1,90.6h7.6v12.6c0,2.8,0.7,3.5,2.2,3.5c1.4,0,2.2-0.5,3.2-1.9V90.6h7.6v22.1h-6.2
					l-0.5-2.9h-0.2c-1.8,2.1-3.8,3.4-6.8,3.4c-4.9,0-6.9-3.5-6.9-9L148.1,90.6L148.1,90.6z"/>
				<path id="XMLID_5413_" class="st8" d="M183.3,90.1c6.5,0,9.6,4.8,9.6,10.7c0,1.3-0.2,2.5-0.3,3H180c0.7,2.8,2.7,3.7,5.1,3.7
					c1.5,0,2.9-0.4,4.5-1.3l2.5,4.5c-2.4,1.7-5.6,2.6-8,2.6c-6.5,0-11.4-4.2-11.4-11.6C172.7,94.5,177.9,90.1,183.3,90.1z
					 M186.5,99.2c0-1.9-0.7-3.4-3-3.4c-1.7,0-3.1,0.9-3.5,3.4H186.5z"/>
				<path id="XMLID_5416_" class="st8" d="M201.6,104c2.6,0,4.4,2,4.4,4.6s-1.9,4.6-4.4,4.6s-4.4-2-4.4-4.6S199,104,201.6,104z"/>
				<path id="XMLID_5418_" class="st8" d="M215.7,104c2.6,0,4.4,2,4.4,4.6s-1.9,4.6-4.4,4.6c-2.6,0-4.4-2-4.4-4.6
					S213.2,104,215.7,104z"/>
				<path id="XMLID_5420_" class="st8" d="M229.9,104c2.6,0,4.4,2,4.4,4.6s-1.9,4.6-4.4,4.6s-4.4-2-4.4-4.6S227.3,104,229.9,104z"/>
			</g>
			<g id="XMLID_5281_">
				<path id="XMLID_5395_" class="st9" d="M128.4,92.7c2.3,0,4.1,0.8,5.7,2.7h0.2l0.6-2.2h5.9v29.9h-7.6v-6.3l0.3-3.1
					c-1.3,1.3-3.4,2.2-5.1,2.2c-5.5,0-9-4.4-9-11.6C119.4,97.1,123.9,92.7,128.4,92.7z M130.4,109.7c1.1,0,2-0.4,2.8-1.6V100
					c-0.9-0.8-2-1.1-3-1.1c-1.6,0-3.1,1.4-3.1,5.3C127.1,108.2,128.4,109.7,130.4,109.7z"/>
				<path id="XMLID_5398_" class="st9" d="M145.8,93.3h7.6v12.6c0,2.8,0.7,3.5,2.2,3.5c1.4,0,2.2-0.5,3.2-1.9V93.3h7.6v22.1h-6.2
					l-0.5-2.9h-0.2c-1.8,2.1-3.8,3.4-6.8,3.4c-4.9,0-6.9-3.5-6.9-9L145.8,93.3L145.8,93.3z"/>
				<path id="XMLID_5400_" class="st9" d="M181,92.7c6.5,0,9.6,4.8,9.6,10.7c0,1.3-0.2,2.5-0.3,3h-12.6c0.7,2.8,2.7,3.7,5.1,3.7
					c1.5,0,2.9-0.4,4.5-1.3l2.5,4.5c-2.4,1.7-5.6,2.6-8,2.6c-6.5,0-11.4-4.2-11.4-11.6C170.4,97.1,175.6,92.7,181,92.7z
					 M184.1,101.8c0-1.9-0.7-3.4-3-3.4c-1.7,0-3.1,0.9-3.5,3.4H184.1z"/>
				<path id="XMLID_5403_" class="st9" d="M199.3,106.7c2.6,0,4.4,2,4.4,4.6s-1.9,4.6-4.4,4.6s-4.4-2-4.4-4.6
					S196.7,106.7,199.3,106.7z"/>
				<path id="XMLID_5405_" class="st9" d="M213.4,106.7c2.6,0,4.4,2,4.4,4.6s-1.9,4.6-4.4,4.6c-2.6,0-4.4-2-4.4-4.6
					S210.8,106.7,213.4,106.7z"/>
				<path id="XMLID_5407_" class="st9" d="M227.5,106.7c2.6,0,4.4,2,4.4,4.6s-1.9,4.6-4.4,4.6s-4.4-2-4.4-4.6S225,106.7,227.5,106.7
					z"/>
			</g>
		</g>
	</g>
</g>
</svg>
