<?xml version="1.0" encoding="utf-8"?>
<!-- Generator: Adobe Illustrator 19.2.1, SVG Export Plug-In . SVG Version: 6.00 Build 0)  -->
<svg version="1.1" id="Capa_1" xmlns="http://www.w3.org/2000/svg" xmlns:xlink="http://www.w3.org/1999/xlink" x="0px" y="0px"
	 viewBox="0 0 40 40" style="enable-background:new 0 0 40 40;" xml:space="preserve">
<style type="text/css">
	.st0{fill:#FFFFFF;stroke:#FFFFFF;stroke-miterlimit:10;}
</style>
<g>
	<path class="st0" d="M0.8,20c0,10.6,8.6,19.2,19.2,19.2S39.2,30.6,39.2,20S30.6,0.8,20,0.8S0.8,9.4,0.8,20z M2.2,20
		c0-9.8,8-17.8,17.8-17.8s17.8,8,17.8,17.8s-8,17.8-17.8,17.8S2.2,29.8,2.2,20z"/>
	<path class="st0" d="M7.7,20.4c0,0.6,0.5,1,1,1h20.7l-6.1,6.1c-0.4,0.4-0.4,1,0,1.4c0.2,0.2,0.5,0.3,0.7,0.3s0.5-0.1,0.7-0.3
		l7.8-7.8c0.2-0.2,0.3-0.4,0.3-0.7v0v0v0c0-0.3-0.1-0.5-0.3-0.7l-7.8-7.8c-0.4-0.4-1-0.4-1.4,0c-0.4,0.4-0.4,1,0,1.4l6.1,6.1H8.7
		C8.1,19.4,7.7,19.9,7.7,20.4z"/>
</g>
</svg>
