<?xml version="1.0" encoding="utf-8"?>
<!-- Generator: Adobe Illustrator 19.2.1, SVG Export Plug-In . SVG Version: 6.00 Build 0)  -->
<svg version="1.1" id="Capa_1" xmlns="http://www.w3.org/2000/svg" xmlns:xlink="http://www.w3.org/1999/xlink" x="0px" y="0px"
	 viewBox="0 0 1280 63" style="enable-background:new 0 0 1280 63;" xml:space="preserve">
<style type="text/css">
	.st0{fill:none;stroke:#C7C9C7;stroke-miterlimit:10;}
	.st1{fill:#FFFFFF;}
	.st2{fill:#137CB8;}
	.st3{fill:#B8CA20;}
</style>
<g>
	<line class="st0" x1="195.1" y1="46.7" x2="195.1" y2="17.5"/>
	<g>
		<path class="st1" d="M251.6,28.4c-2.2,0-4.3,1.5-4.3,4.7c0,3.1,2.1,4.7,4.3,4.7c2.4,0,4.4-1.9,4.4-4.7
			C256,30.4,254.1,28.4,251.6,28.4 M252.1,40.5c-1.9,0-3.6-0.8-4.8-2.1v7h-3.1V25.9h2.8v2c1-1.5,2.9-2.3,5-2.3c4,0,7,3.2,7,7.4
			C259.1,37.3,256.1,40.5,252.1,40.5"/>
		<path class="st1" d="M274.4,40.2h-3.1v-8.5c0-2-1.2-3.3-3.1-3.3s-3.3,1.4-3.3,3.3v8.5h-3.1V18.4h3.1v9c1-1.1,2.4-1.7,4.1-1.7
			c3.3,0,5.3,2.3,5.3,5.7V40.2z"/>
		<path class="st1" d="M302.6,28.3c-1.3,0-2.3,0.4-3.1,1.2c-0.8,0.8-1.2,1.9-1.2,3.2c0,1.3,0.4,2.4,1.2,3.3c0.8,0.8,1.9,1.2,3.1,1.2
			c1.2,0,2.2-0.4,3-1.2c0.8-0.8,1.3-1.9,1.3-3.3C306.9,29.8,304.9,28.3,302.6,28.3 M309.9,25.9v12.8c0,4.5-2.8,7-7.2,7
			c-2.8,0-5.1-1.1-6.9-2.7l1.7-2.1c1.6,1.3,3.1,2,5,2c2.6,0,4.3-1.4,4.3-4.1v-1c-1.1,1.3-2.8,2-4.8,2c-4,0-6.9-3-6.9-7.2
			c0-4.2,3-7.2,6.9-7.2c2.2,0,4,0.9,5.1,2.4v-2H309.9z"/>
		<path class="st1" d="M320.2,28.4c-2.4,0-4.4,2-4.4,4.7c0,2.7,1.9,4.7,4.4,4.7c2.2,0,4.3-1.5,4.3-4.7
			C324.5,29.9,322.4,28.4,320.2,28.4 M327.5,25.9v14.3h-3v-1.8c-1.1,1.4-2.9,2.2-4.9,2.2c-4,0.1-7.1-3.3-7-7.4c0-4.2,3-7.5,7-7.5
			c2.1,0,4,0.9,5,2.4v-2H327.5z"/>
		<path class="st1" d="M284.6,28.4c-2.4,0-4.4,2-4.4,4.7c0,2.7,1.9,4.7,4.4,4.7c2.2,0,4.3-1.5,4.3-4.7
			C289,29.9,286.9,28.4,284.6,28.4 M292,25.9v14.3h-3v-1.8c-1.1,1.4-2.9,2.2-4.9,2.2c-4,0.1-7.1-3.3-7-7.4c0-4.2,3-7.5,7-7.5
			c2.1,0,4,0.9,5,2.4v-2H292z"/>
		<path class="st1" d="M339.4,28.6h-0.9c-2.4,0-4.2,1.4-4.2,4v7.6h-3.1V25.9h2.8v1.9c1-1.3,2.5-2,4.2-2c0.4,0,0.8,0.1,1.2,0.1V28.6z
			"/>
		<path class="st1" d="M354.9,25.9v13.2c0,4.2-2.6,6.6-6.5,6.6c-2.5,0-4.7-1-6.3-2.7l1.7-2.1c1.5,1.4,2.7,2,4.3,2
			c2.2,0,3.7-1.2,3.7-3.6v-1.2c-1,1-2.5,1.6-4.1,1.6c-3.3,0-5.3-2.3-5.3-5.7v-8.2h3v7.8c0,2,1.2,3.3,3.1,3.3c1.9,0,3.3-1.3,3.3-3.3
			v-7.8H354.9z"/>
		<rect x="237.6" y="18.4" class="st1" width="3.1" height="21.8"/>
		<path class="st1" d="M230.9,34.5h-3.7c-1.6,0-2.5,0.6-2.5,1.7c0,1.2,1,1.9,2.5,1.9c2.1,0,3.7-1.4,3.7-3.4V34.5z M234,40.2h-2.8
			v-1.6c-1,1.3-2.6,1.9-4.6,1.9c-3,0-5-1.7-5-4.1c0-2.5,2-4.1,5.3-4.1h4v-0.9c0-2-1.1-3.1-3.1-3.1c-1.6,0-2.8,0.7-4,2.1l-1.8-1.8
			c1.4-2.1,3.5-3.1,6-3.1c3.5,0,5.8,2.1,5.8,6V40.2z"/>
	</g>
	<g>
		<polygon class="st2" points="26.9,18.4 35.6,45.8 45.7,45.8 37,18.4 		"/>
		<polygon class="st3" points="54.5,18.4 45.7,45.8 55.9,45.8 64.6,18.4 		"/>
		<path class="st1" d="M153.5,22.8c-1.2,0-2-0.8-2-2c0-1.1,0.8-2,2-2c1.2,0,2,0.8,2,2C155.4,21.9,154.6,22.8,153.5,22.8 M77.2,40.3
			l-5.5-13.7h3.5l3.6,10.5l3.6-10.5H86l-5.5,13.7H77.2z M90.2,34.4c0.3,2.2,1.6,3.8,4,3.8c2.7,0,4.2-1.5,4.2-1.5l0.9,2
			c0,0-2,2-5.3,2c-4.7,0-7-3.3-7-7.3c0-3.9,2.2-7.2,6.8-7.2c4.6,0,6.1,3.9,6.1,6.2c0,1.2-0.3,2-0.3,2H90.2z M97.1,32.4v-0.2
			c0-1.8-1.1-3.5-3.3-3.5c-2.2,0-3.5,1.5-3.7,3.7H97.1z M112.6,29.9c0,0-1.5-1.1-4.2-1.1c-2,0-2.9,0.7-2.9,1.8
			c0,1.4,1.5,1.5,3.2,1.9c2.3,0.4,5.2,1.1,5.2,4.2c0,2.4-2,4-5.9,4c-4.1,0-6.1-1.8-6.1-1.8l1-2.3c0,0,1.9,1.5,5,1.5
			c1.7,0,2.7-0.6,2.7-1.5c0-1.3-1.3-1.5-3-1.9c-2.4-0.5-5.4-0.9-5.4-4.3c0-2.1,1.7-4.3,6.1-4.3c3.4,0,5.3,1.3,5.3,1.3L112.6,29.9z
			 M125.8,39.6c0,0-1.5,1.2-3.7,1.2c-2.8,0-4.5-1.4-4.5-4.8v-6.7h-2.2l0.5-2.6h1.7v-3.3l3.1-0.9v4.1h4.4v2.6h-4.4v6.5
			c0,1.6,0.6,2.2,1.9,2.2c1.5,0,2.4-0.7,2.4-0.7L125.8,39.6z M134.1,40.8c-4.6,0-7-3.3-7-7.2c0-3.9,2.3-7.3,7-7.3c4.7,0,7,3.4,7,7.3
			C141.1,37.5,138.8,40.8,134.1,40.8 M138,33.5c0-2.6-1.3-4.7-3.9-4.7c-2.6,0-3.9,2.1-3.9,4.7c0,2.7,1.3,4.6,3.9,4.6
			C136.7,38.2,138,36.2,138,33.5 M150.2,39.5c0,0-1.4,1-3.5,1c-2,0-2.7-0.9-2.7-3V19.3l3.1-0.9v18.7c0,0.7,0.2,1,0.8,1
			c0.8,0,2-0.5,2-0.5L150.2,39.5z M151.9,40.3V27.5l3.1-0.9v13.7H151.9z M167.8,39.6c0,0-1.5,1.2-3.7,1.2c-2.8,0-4.5-1.4-4.5-4.8
			v-6.7h-2.2l0.5-2.6h1.7v-3.3l3.1-0.9v4.1h4.4v2.6h-4.4v6.5c0,1.6,0.6,2.2,1.9,2.2c1.5,0,2.4-0.7,2.4-0.7L167.8,39.6z"/>
	</g>
</g>
</svg>
