<?xml version="1.0" encoding="utf-8"?>
<!-- Generator: Adobe Illustrator 19.2.1, SVG Export Plug-In . SVG Version: 6.00 Build 0)  -->
<svg version="1.1" id="Capa_1" xmlns="http://www.w3.org/2000/svg" xmlns:xlink="http://www.w3.org/1999/xlink" x="0px" y="0px"
	 viewBox="0 0 380 45" style="enable-background:new 0 0 380 45;" xml:space="preserve">
<style type="text/css">
	.st0{fill:none;stroke:#C7C9C7;stroke-miterlimit:10;}
	.st1{fill:#FFFFFF;}
	.st2{fill:#137CB8;}
	.st3{fill:#B8CA20;}
</style>
<g>
	<line class="st0" x1="194.2" y1="37.1" x2="194.2" y2="7.9"/>
	<g>
		<path class="st1" d="M250.7,18.8c-2.2,0-4.3,1.5-4.3,4.7c0,3.1,2.1,4.7,4.3,4.7c2.4,0,4.4-1.9,4.4-4.7
			C255.1,20.8,253.2,18.8,250.7,18.8 M251.2,30.9c-1.9,0-3.6-0.8-4.8-2.1v7h-3.1V16.3h2.8v2c1-1.5,2.9-2.3,5-2.3c4,0,7,3.2,7,7.4
			C258.2,27.7,255.2,30.9,251.2,30.9"/>
		<path class="st1" d="M273.5,30.6h-3.1v-8.5c0-2-1.2-3.3-3.1-3.3s-3.3,1.4-3.3,3.3v8.5h-3.1V8.8h3.1v9c1-1.1,2.4-1.7,4.1-1.7
			c3.3,0,5.3,2.3,5.3,5.7v8.8H273.5z"/>
		<path class="st1" d="M301.7,18.7c-1.3,0-2.3,0.4-3.1,1.2c-0.8,0.8-1.2,1.9-1.2,3.2c0,1.3,0.4,2.4,1.2,3.3c0.8,0.8,1.9,1.2,3.1,1.2
			s2.2-0.4,3-1.2s1.3-1.9,1.3-3.3C306,20.2,304,18.7,301.7,18.7 M309,16.3v12.8c0,4.5-2.8,7-7.2,7c-2.8,0-5.1-1.1-6.9-2.7l1.7-2.1
			c1.6,1.3,3.1,2,5,2c2.6,0,4.3-1.4,4.3-4.1v-1c-1.1,1.3-2.8,2-4.8,2c-4,0-6.9-3-6.9-7.2s3-7.2,6.9-7.2c2.2,0,4,0.9,5.1,2.4v-2
			L309,16.3L309,16.3z"/>
		<path class="st1" d="M319.3,18.8c-2.4,0-4.4,2-4.4,4.7s1.9,4.7,4.4,4.7c2.2,0,4.3-1.5,4.3-4.7S321.5,18.8,319.3,18.8 M326.6,16.3
			v14.3h-3v-1.8c-1.1,1.4-2.9,2.2-4.9,2.2c-4,0.1-7.1-3.3-7-7.4c0-4.2,3-7.5,7-7.5c2.1,0,4,0.9,5,2.4v-2h2.9V16.3z"/>
		<path class="st1" d="M283.7,18.8c-2.4,0-4.4,2-4.4,4.7s1.9,4.7,4.4,4.7c2.2,0,4.3-1.5,4.3-4.7C288.1,20.3,286,18.8,283.7,18.8
			 M291.1,16.3v14.3h-3v-1.8c-1.1,1.4-2.9,2.2-4.9,2.2c-4,0.1-7.1-3.3-7-7.4c0-4.2,3-7.5,7-7.5c2.1,0,4,0.9,5,2.4v-2h2.9V16.3z"/>
		<path class="st1" d="M338.5,19h-0.9c-2.4,0-4.2,1.4-4.2,4v7.6h-3.1V16.3h2.8v1.9c1-1.3,2.5-2,4.2-2c0.4,0,0.8,0.1,1.2,0.1V19z"/>
		<path class="st1" d="M354,16.3v13.2c0,4.2-2.6,6.6-6.5,6.6c-2.5,0-4.7-1-6.3-2.7l1.7-2.1c1.5,1.4,2.7,2,4.3,2
			c2.2,0,3.7-1.2,3.7-3.6v-1.2c-1,1-2.5,1.6-4.1,1.6c-3.3,0-5.3-2.3-5.3-5.7v-8.2h3V24c0,2,1.2,3.3,3.1,3.3s3.3-1.3,3.3-3.3v-7.8
			h3.1V16.3z"/>
		<rect x="236.7" y="8.8" class="st1" width="3.1" height="21.8"/>
		<path class="st1" d="M230,24.9h-3.7c-1.6,0-2.5,0.6-2.5,1.7c0,1.2,1,1.9,2.5,1.9c2.1,0,3.7-1.4,3.7-3.4V24.9z M233.1,30.6h-2.8V29
			c-1,1.3-2.6,1.9-4.6,1.9c-3,0-5-1.7-5-4.1c0-2.5,2-4.1,5.3-4.1h4v-0.9c0-2-1.1-3.1-3.1-3.1c-1.6,0-2.8,0.7-4,2.1l-1.8-1.8
			c1.4-2.1,3.5-3.1,6-3.1c3.5,0,5.8,2.1,5.8,6v8.7H233.1z"/>
	</g>
	<g>
		<polygon class="st2" points="26,8.8 34.7,36.2 44.8,36.2 36.1,8.8 		"/>
		<polygon class="st3" points="53.6,8.8 44.8,36.2 55,36.2 63.7,8.8 		"/>
		<path class="st1" d="M152.6,13.2c-1.2,0-2-0.8-2-2c0-1.1,0.8-2,2-2s2,0.8,2,2C154.5,12.3,153.7,13.2,152.6,13.2 M76.3,30.7
			L70.8,17h3.5l3.6,10.5L81.5,17h3.6l-5.5,13.7H76.3z M89.3,24.8c0.3,2.2,1.6,3.8,4,3.8c2.7,0,4.2-1.5,4.2-1.5l0.9,2c0,0-2,2-5.3,2
			c-4.7,0-7-3.3-7-7.3c0-3.9,2.2-7.2,6.8-7.2c4.6,0,6.1,3.9,6.1,6.2c0,1.2-0.3,2-0.3,2H89.3z M96.2,22.8v-0.2c0-1.8-1.1-3.5-3.3-3.5
			c-2.2,0-3.5,1.5-3.7,3.7H96.2z M111.7,20.3c0,0-1.5-1.1-4.2-1.1c-2,0-2.9,0.7-2.9,1.8c0,1.4,1.5,1.5,3.2,1.9
			c2.3,0.4,5.2,1.1,5.2,4.2c0,2.4-2,4-5.9,4c-4.1,0-6.1-1.8-6.1-1.8l1-2.3c0,0,1.9,1.5,5,1.5c1.7,0,2.7-0.6,2.7-1.5
			c0-1.3-1.3-1.5-3-1.9c-2.4-0.5-5.4-0.9-5.4-4.3c0-2.1,1.7-4.3,6.1-4.3c3.4,0,5.3,1.3,5.3,1.3L111.7,20.3z M124.9,30
			c0,0-1.5,1.2-3.7,1.2c-2.8,0-4.5-1.4-4.5-4.8v-6.7h-2.2l0.5-2.6h1.7v-3.3l3.1-0.9V17h4.4v2.6h-4.4v6.5c0,1.6,0.6,2.2,1.9,2.2
			c1.5,0,2.4-0.7,2.4-0.7L124.9,30z M133.2,31.2c-4.6,0-7-3.3-7-7.2s2.3-7.3,7-7.3s7,3.4,7,7.3S137.9,31.2,133.2,31.2 M137.1,23.9
			c0-2.6-1.3-4.7-3.9-4.7c-2.6,0-3.9,2.1-3.9,4.7c0,2.7,1.3,4.6,3.9,4.6C135.8,28.6,137.1,26.6,137.1,23.9 M149.3,29.9
			c0,0-1.4,1-3.5,1c-2,0-2.7-0.9-2.7-3V9.7l3.1-0.9v18.7c0,0.7,0.2,1,0.8,1c0.8,0,2-0.5,2-0.5L149.3,29.9z M151,30.7V17.9l3.1-0.9
			v13.7H151z M166.9,30c0,0-1.5,1.2-3.7,1.2c-2.8,0-4.5-1.4-4.5-4.8v-6.7h-2.2l0.5-2.6h1.7v-3.3l3.1-0.9V17h4.4v2.6h-4.4v6.5
			c0,1.6,0.6,2.2,1.9,2.2c1.5,0,2.4-0.7,2.4-0.7L166.9,30z"/>
	</g>
</g>
</svg>
