<?xml version="1.0" encoding="utf-8"?>
<!-- Generator: Adobe Illustrator 23.1.0, SVG Export Plug-In . SVG Version: 6.00 Build 0)  -->
<svg version="1.1" id="Capa_1" xmlns="http://www.w3.org/2000/svg" xmlns:xlink="http://www.w3.org/1999/xlink" x="0px" y="0px"
	 viewBox="0 0 50 50" style="enable-background:new 0 0 50 50;" xml:space="preserve">
<style type="text/css">
	.st0{fill:#666666;}
</style>
<g>
	<g>
		<path class="st0" d="M29.2,24.4l-7.6-4.9c-0.2-0.1-0.5-0.1-0.7,0s-0.4,0.4-0.4,0.6v9.7c0,0.3,0.1,0.5,0.4,0.6
			c0.1,0.1,0.2,0.1,0.3,0.1c0.1,0,0.3,0,0.4-0.1l7.6-4.9c0.2-0.1,0.3-0.3,0.3-0.6C29.5,24.8,29.4,24.5,29.2,24.4L29.2,24.4z
			 M21.9,28.6v-7.2l5.7,3.6L21.9,28.6z"/>
		<path class="st0" d="M48.5,8.9h-47C1,8.9,0.7,9.3,0.7,9.7v30.5c0,0.5,0.4,0.8,0.8,0.8h46.9c0.5,0,0.8-0.4,0.8-0.8V9.8
			C49.3,9.3,48.9,8.9,48.5,8.9L48.5,8.9z M9.1,17.8H2.4v-7.2h6.7V17.8z M2.4,19.4h6.7v10.7H2.4V19.4z M10.8,31V10.6h28.5v28.8H10.8
			V31z M47.6,17.8h-6.7v-7.2h6.7V17.8z M40.9,19.4h6.7v10.7h-6.7V19.4z M2.4,39.4v-7.5h6.7v7.5H2.4z M47.6,39.4h-6.7v-7.5h6.7V39.4z
			"/>
	</g>
</g>
</svg>
