<?xml version="1.0" encoding="utf-8"?>
<!-- Generator: Adobe Illustrator 19.2.1, SVG Export Plug-In . SVG Version: 6.00 Build 0)  -->
<svg version="1.1" id="Capa_1" xmlns="http://www.w3.org/2000/svg" xmlns:xlink="http://www.w3.org/1999/xlink" x="0px" y="0px"
	 viewBox="0 0 50 50" style="enable-background:new 0 0 50 50;" xml:space="preserve">
<style type="text/css">
	.st0{fill:#FFFFFF;}
</style>
<path class="st0" d="M44.9,10.3H5.2c-2.5,0-4.5,2-4.5,4.5v20.3c0,2.5,2,4.5,4.5,4.5h39.5c2.5,0,4.5-2,4.5-4.5V14.8
	C49.5,12.3,47.4,10.3,44.9,10.3z M14.9,30c0.7,1.1,1.6,1.6,2.9,1.6c0.9,0,1.8-0.5,2.5-1.1c0.7-0.7,1.1-1.6,1.1-2.7l2.9,0.2
	c-0.2,1.8-0.9,3.4-2,4.5c-1.1,1.1-2.7,1.8-4.7,1.8c-1.6,0-2.9-0.5-4.1-1.4c-1.1-0.9-1.8-2-2.5-3.4c-0.7-1.4-0.9-2.9-0.9-4.7
	c0-2.7,0.7-5,2-6.8s3.2-2.5,5.4-2.5c1.8,0,3.4,0.5,4.5,1.6s2,2.7,2.3,4.7l-2.9,0.2C21,19.4,19.6,18,17.8,18c-1.1,0-2.3,0.7-2.9,1.8
	c-0.7,1.1-1.1,2.9-1.1,5.2C13.8,27,14,28.8,14.9,30z M30.5,30c0.7,1.1,1.6,1.6,2.9,1.6c0.9,0,1.8-0.5,2.5-1.1
	c0.7-0.7,1.1-1.6,1.1-2.7l2.9,0.2c-0.2,1.8-0.9,3.4-2,4.5c-1.1,1.1-2.7,1.8-4.7,1.8c-1.6,0-2.9-0.5-4.1-1.4c-1.1-0.9-1.8-2-2.5-3.4
	c-0.7-1.4-0.9-2.9-0.9-4.7c0-2.7,0.7-5,2-6.8s3.2-2.5,5.4-2.5c1.8,0,3.4,0.5,4.5,1.6s2,2.7,2.3,4.7L37,22.1
	c-0.7-2.5-1.8-3.8-3.8-3.8c-1.1,0-2.3,0.7-2.9,1.8c-0.7,1.1-0.9,2.7-0.9,5C29.4,27,29.8,28.8,30.5,30z"/>
</svg>
