<?xml version="1.0" encoding="utf-8"?>
<!-- Generator: Adobe Illustrator 19.2.1, SVG Export Plug-In . SVG Version: 6.00 Build 0)  -->
<svg version="1.1" id="Capa_1" xmlns="http://www.w3.org/2000/svg" xmlns:xlink="http://www.w3.org/1999/xlink" x="0px" y="0px"
	 viewBox="0 0 50 50" style="enable-background:new 0 0 50 50;" xml:space="preserve">
<style type="text/css">
	.st0{fill:#FFFFFF;}
	.st1{fill:none;}
</style>
<g>
	<g>
		<path class="st0" d="M20.6,28.2l3.4,0.3c-0.3,2.1-1,3.9-2.3,5.2c-1.3,1.3-3.1,2.1-5.5,2.1c-1.8,0-3.4-0.5-4.7-1.6
			s-2.1-2.3-2.9-3.9c-0.8-1.6-1-3.4-1-5.5c0-3.1,0.8-5.7,2.3-7.8s3.7-2.9,6.3-2.9c2.1,0,3.9,0.5,5.2,1.8s2.3,3.1,2.6,5.5l-3.4,0.3
			c-0.8-2.9-2.1-4.4-4.4-4.4c-1.3,0-2.6,0.8-3.4,2.1c-0.8,1.3-1,3.1-1,5.7s0.5,4.4,1.3,5.7c0.8,1.3,1.8,1.8,3.4,1.8
			c1,0,2.1-0.5,2.9-1.3C20.1,30.6,20.4,29.5,20.6,28.2z"/>
		<path class="st0" d="M38.7,28.2l3.4,0.3c-0.3,2.1-1,3.9-2.3,5.2c-1.3,1.3-3.1,2.1-5.5,2.1c-1.8,0-3.4-0.5-4.7-1.6
			c-1.3-1-2.1-2.3-2.9-3.9c-0.8-1.6-1-3.4-1-5.5c0-3.1,0.8-5.7,2.3-7.8c1.6-2.1,3.7-2.9,6.3-2.9c2.1,0,3.9,0.5,5.2,1.8
			s2.3,3.1,2.6,5.5l-3.4,0.3c-0.5-2.9-2.1-4.4-4.2-4.4c-1.3,0-2.6,0.8-3.4,2.1c-0.8,1.3-1,3.1-1,5.7s0.5,4.4,1.3,5.7
			c0.8,1.3,1.8,1.8,3.4,1.8c1,0,2.1-0.5,2.9-1.3C38.4,30.6,38.7,29.5,38.7,28.2z"/>
	</g>
	<g>
		<line class="st1" x1="2.6" y1="29.8" x2="48" y2="21"/>
		<path class="st0" d="M2.6,31.1c-0.5,0-1-0.5-1.3-1c-0.3-0.8,0.3-1.3,1-1.6l45.1-8.8c0.8-0.3,1.3,0.3,1.6,1c0.3,0.8-0.3,1.3-1,1.6
			L2.6,31.1C2.9,31.1,2.9,31.1,2.6,31.1z"/>
	</g>
</g>
</svg>
