<?xml version="1.0" encoding="utf-8"?>
<!-- Generator: Adobe Illustrator 19.2.1, SVG Export Plug-In . SVG Version: 6.00 Build 0)  -->
<svg version="1.1" id="Capa_1" xmlns="http://www.w3.org/2000/svg" xmlns:xlink="http://www.w3.org/1999/xlink" x="0px" y="0px"
	 viewBox="0 0 50 50" style="enable-background:new 0 0 50 50;" xml:space="preserve">
<style type="text/css">
	.st0{fill:#FFFFFF;}
</style>
<g>
	<path class="st0" d="M24,25.5c-0.7-0.5-1.7-0.5-2.4,0.2l-7,8v-5.9c0-1-0.7-1.7-1.7-1.7s-1.7,0.7-1.7,1.7v10.7c0,0.2,0,0.3,0.2,0.7
		v0.2c0,0.2,0.2,0.2,0.2,0.3c0,0,0,0.2,0.2,0.2c0.2,0.2,0.2,0.2,0.3,0.2h0.2l0,0c0.2,0,0.3,0.2,0.5,0.2h8.9c1,0,1.7-0.7,1.7-1.7
		s-0.7-1.7-1.7-1.7h-5l7.5-8.7C24.8,27.3,24.7,26.2,24,25.5z"/>
	<path class="st0" d="M26,25.5c0.7-0.7,1.7-0.5,2.4,0.2l7,8v-5.9c0-1,0.7-1.7,1.7-1.7s1.7,0.7,1.7,1.7v10.7c0,0.2,0,0.3-0.2,0.7v0.2
		c0,0.2-0.2,0.2-0.2,0.3c0,0,0,0.2-0.2,0.2c-0.2,0.2-0.2,0.2-0.3,0.2h-0.2l0,0c-0.2,0-0.3,0.2-0.5,0.2h-8.9c-1,0-1.7-0.7-1.7-1.7
		s0.7-1.7,1.7-1.7h5L26,28C25.2,27.3,25.3,26.2,26,25.5z"/>
	<path class="st0" d="M24,24.5c-0.7,0.5-1.7,0.5-2.4-0.2l-7-8v5.9c0,1-0.7,1.7-1.7,1.7s-1.7-0.7-1.7-1.7V11.5c0-0.2,0-0.3,0.2-0.7
		v-0.2c0-0.2,0.2-0.2,0.2-0.3c0,0,0-0.2,0.2-0.2c0.2-0.2,0.2-0.2,0.3-0.2h0.2l0,0c0.2,0,0.3-0.2,0.5-0.2h8.9c1,0,1.7,0.7,1.7,1.7
		s-0.7,1.7-1.7,1.7h-5l7.5,8.7C24.8,22.7,24.7,23.8,24,24.5z"/>
	<path class="st0" d="M26,24.5c0.7,0.7,1.7,0.5,2.4-0.2l7-8v5.9c0,1,0.7,1.7,1.7,1.7s1.7-0.7,1.7-1.7V11.5c0-0.2,0-0.3-0.2-0.7v-0.2
		c0-0.2-0.2-0.2-0.2-0.3c0,0,0-0.2-0.2-0.2c-0.2-0.2-0.2-0.2-0.3-0.2h-0.2l0,0c-0.2,0-0.3-0.2-0.5-0.2h-8.9c-1,0-1.7,0.7-1.7,1.7
		s0.7,1.7,1.7,1.7h5L26,22C25.2,22.7,25.3,23.8,26,24.5z"/>
</g>
</svg>
