<?xml version="1.0" encoding="utf-8"?>
<!-- Generator: Adobe Illustrator 19.2.1, SVG Export Plug-In . SVG Version: 6.00 Build 0)  -->
<svg version="1.1" id="Capa_1" xmlns="http://www.w3.org/2000/svg" xmlns:xlink="http://www.w3.org/1999/xlink" x="0px" y="0px"
	 viewBox="0 0 50 50" style="enable-background:new 0 0 50 50;" xml:space="preserve">
<style type="text/css">
	.st0{fill:#FFFFFF;}
</style>
<g>
	<path class="st0" d="M11.1,39.9c0.8,0.8,2,0.6,2.7-0.2l6.7-7.3v6.7c0,1.2,0.8,2,2,2c1.2,0,2-0.8,2-2V27.2c0-0.2,0-0.4-0.2-0.8v-0.2
		c0-0.2-0.2-0.2-0.2-0.4c0,0,0-0.2-0.2-0.2c-0.2-0.2-0.2-0.2-0.4-0.2h-0.2l0,0c-0.2,0-0.4-0.2-0.6-0.2h-10c-1.2,0-2,0.8-2,2
		c0,1.2,0.8,2,2,2h5.7l-7.3,8C10.3,37.9,10.3,39.1,11.1,39.9z"/>
	<path class="st0" d="M38.9,9.5c-0.8-0.8-2-0.6-2.7,0.2l-6.7,7.9v-6.7c0-1.2-0.8-2-2-2s-2,0.8-2,2v12c0,0.2,0,0.4,0.2,0.8v0.2
		c0,0.2,0.2,0.2,0.2,0.4c0,0,0,0.2,0.2,0.2c0.2,0.2,0.2,0.2,0.4,0.2h0.2l0,0c0.2,0,0.4,0.2,0.6,0.2h10c1.2,0,2-0.8,2-2
		c0-1.2-0.8-2-2-2h-5.7l7.3-8.6C39.7,11.5,39.7,10.1,38.9,9.5z"/>
</g>
</svg>
