<?xml version="1.0" encoding="utf-8"?>
<!-- Generator: Adobe Illustrator 19.2.1, SVG Export Plug-In . SVG Version: 6.00 Build 0)  -->
<svg version="1.1" id="Capa_1" xmlns="http://www.w3.org/2000/svg" xmlns:xlink="http://www.w3.org/1999/xlink" x="0px" y="0px"
	 viewBox="0 0 50 50" style="enable-background:new 0 0 50 50;" xml:space="preserve">
<style type="text/css">
	.st0{fill:#FFFFFF;}
</style>
<path class="st0" d="M46.4,11.7c-1.7-0.2-3.1,0.7-3.6,2.4l-1,4.3C40.7,9.5,33.1,3.1,23.1,3.1C11,3.1,1.3,12.9,1.3,25
	S11,46.9,23.1,46.9c6.9,0,13.6-3.3,17.6-8.8c1-1.4,0.7-3.1-0.7-4.3c-1.4-1-3.1-0.7-4,0.7c-3.1,4-7.8,6.4-12.8,6.4
	c-8.8,0-15.9-7.1-15.9-15.9S14.3,9.1,23.1,9.1c7.4,0,12.8,4.8,13.1,11.2l-4-1.9c-1.4-0.7-3.3,0-4,1.4c-0.7,1.4,0,3.3,1.4,4l12.1,5.5
	c0.5,0.2,0.7,0.2,1.2,0.2s1,0,1.4-0.2c0.7-0.5,1.4-1.2,1.7-2.1L48.6,15C49,13.6,48.1,11.9,46.4,11.7z"/>
</svg>
