<?xml version="1.0" encoding="utf-8"?>
<!-- Generator: Adobe Illustrator 19.2.1, SVG Export Plug-In . SVG Version: 6.00 Build 0)  -->
<svg version="1.1" id="Capa_1" xmlns="http://www.w3.org/2000/svg" xmlns:xlink="http://www.w3.org/1999/xlink" x="0px" y="0px"
	 viewBox="0 0 50 50" style="enable-background:new 0 0 50 50;" xml:space="preserve">
<style type="text/css">
	.st0{fill:#FFFFFF;}
</style>
<g>
	<path class="st0" d="M8.9,22.5c0-2.6,1.8-3.3,4.1-3.3c1.4,0,4.5,0.1,4.5,0.1s2.2-2.8,3-3.7l3.7-3.7c1.8-2,3.5-1.4,3.5,1.4v23.2
		c0,2.6-1.6,3.3-3.5,1.5l-4.3-4.3C19,33,17,30.5,17,30.5s-3.2-0.1-4.3-0.1c-2,0-3.7-0.5-3.7-3.3L8.9,22.5L8.9,22.5L8.9,22.5z"/>
	<g>
		<path class="st0" d="M30.9,32.8c-0.5,0-1-0.3-1.2-0.8c-0.3-0.7,0-1.4,0.7-1.6c2.2-1,3.7-3.2,3.7-5.6c0-2-1-3.8-2.6-4.9
			c-0.5-0.3-0.7-1.2-0.3-1.6c0.3-0.5,1.2-0.7,1.6-0.3c2.3,1.6,3.7,4.3,3.7,7.1c0,3.5-2,6.4-5.1,7.8C31.3,32.6,31.1,32.8,30.9,32.8z"
			/>
	</g>
	<g>
		<path class="st0" d="M32.9,37.7c-0.5,0-0.8-0.1-1.2-0.7c-0.3-0.7-0.1-1.4,0.5-1.6c3.8-2.2,6.3-6.2,6.3-10.6c0-4.1-2-7.9-5.5-10.1
			c-0.5-0.3-0.7-1.2-0.3-1.6c0.3-0.5,1.2-0.7,1.6-0.3C38.4,15.4,41,20,41,25c0,5.3-2.8,10.1-7.4,12.7C33.4,37.6,33.1,37.7,32.9,37.7
			z"/>
	</g>
</g>
</svg>
