<?xml version="1.0" encoding="utf-8"?>
<!-- Generator: Adobe Illustrator 19.2.1, SVG Export Plug-In . SVG Version: 6.00 Build 0)  -->
<svg version="1.1" id="Capa_1" xmlns="http://www.w3.org/2000/svg" xmlns:xlink="http://www.w3.org/1999/xlink" x="0px" y="0px"
	 viewBox="0 0 50 50" style="enable-background:new 0 0 50 50;" xml:space="preserve">
<style type="text/css">
	.st0{fill:#FFFFFF;}
	.st1{fill:none;}
</style>
<g>
	<path class="st0" d="M13.7,22.6c0-2.6,1.7-3.1,3.8-3.1c1.2,0,4.1,0.2,4.1,0.2s2-2.6,2.8-3.4l3.4-3.4c1.7-1.8,3.2-1.2,3.2,1.2v21.6
		c0,2.5-1.5,3.1-3.2,1.4l-4-4c-0.8-0.8-2.6-3.1-2.6-3.1s-2.9-0.3-4.1-0.3c-1.8,0-3.4-0.6-3.4-3.1C13.7,26.6,13.7,22.6,13.7,22.6z"/>
	<g>
		<line class="st1" x1="34.7" y1="12.1" x2="17.6" y2="38"/>
		<path class="st0" d="M17.6,39.6c-0.3,0-0.6-0.2-0.8-0.3c-0.8-0.5-0.9-1.4-0.5-2.1l17.2-26c0.5-0.8,1.4-0.9,2.1-0.5
			c0.8,0.5,0.9,1.4,0.5,2.1L19,38.9C18.7,39.4,18.2,39.6,17.6,39.6z"/>
	</g>
</g>
</svg>
